<?xml version="1.0" standalone="no"?>
<!DOCTYPE svg PUBLIC "-//W3C//DTD SVG 1.1//EN" "http://www.w3.org/Graphics/SVG/1.1/DTD/svg11.dtd" >
<svg xmlns="http://www.w3.org/2000/svg">
<metadata></metadata>
<defs>
<font id="tungstenmedium" horiz-adv-x="661" >
<font-face units-per-em="2048" ascent="1638" descent="-410" />
<missing-glyph horiz-adv-x="245" />
<glyph unicode="&#xfb01;" horiz-adv-x="712" d="M43 963v143h63v125q0 223 224 223h63v-143h-57q-74 0 -74 -74v-131h125v-143h-125v-963h-156v963h-63zM475 1219v174h164v-174h-164zM479 0v1106h156v-1106h-156z" />
<glyph unicode="&#xfb02;" horiz-adv-x="712" d="M43 963v143h63v125q0 223 224 223h63v-143h-57q-74 0 -74 -74v-131h125v-143h-125v-963h-156v963h-63zM479 0v1454h156v-1454h-156z" />
<glyph unicode="&#xfb03;" horiz-adv-x="1085" d="M43 963v143h63v125q0 223 224 223h63v-143h-59q-72 0 -72 -72v-133h107v-143h-107v-963h-156v963h-63zM422 963v143h57v125q0 223 223 223h64v-143h-59q-72 0 -72 -72v-133h125v-143h-125v-963h-156v963h-57zM848 1219v174h164v-174h-164zM852 0v1106h156v-1106h-156z " />
<glyph unicode="&#xfb04;" horiz-adv-x="1085" d="M43 963v143h63v125q0 223 224 223h63v-143h-59q-72 0 -72 -72v-133h107v-143h-107v-963h-156v963h-63zM422 963v143h57v125q0 223 223 223h64v-143h-59q-72 0 -72 -72v-133h125v-143h-125v-963h-156v963h-57zM852 0v1454h156v-1454h-156z" />
<glyph horiz-adv-x="2048" />
<glyph horiz-adv-x="2048" />
<glyph unicode="&#xd;" horiz-adv-x="681" />
<glyph unicode=" "  horiz-adv-x="245" />
<glyph unicode="&#x09;" horiz-adv-x="245" />
<glyph unicode="&#xa0;" horiz-adv-x="245" />
<glyph unicode="!" horiz-adv-x="323" d="M82 0v238h160v-238h-160zM82 1104v330h160v-330l-52 -703h-57z" />
<glyph unicode="&#x22;" horiz-adv-x="487" d="M43 899l31 535h151l-82 -535h-100zM276 899l31 535h152l-82 -535h-101z" />
<glyph unicode="#" horiz-adv-x="741" d="M37 250v170l108 29v430l-108 -29v170l108 29v389h148v-348l156 40v308h147v-267l109 29v-170l-109 -31v-430l109 31v-170l-109 -29v-405h-147v364l-156 -41v-323h-148v283zM293 487l156 43v431l-156 -43v-431z" />
<glyph unicode="$" horiz-adv-x="712" d="M76 254v297h157v-303q0 -109 105 -109h37q104 0 104 109v217q0 84 -69 135l-199 141q-76 55 -105.5 114.5t-29.5 150.5v170q0 238 215 262v125h131v-125q215 -20 215 -258v-254h-158v260q0 109 -104 108h-33q-104 0 -104 -108v-178q0 -51 17 -80t56 -58l193 -137 q78 -57 107.5 -114.5t29.5 -149.5v-211q0 -240 -219 -262v-133h-131v133q-215 20 -215 258z" />
<glyph unicode="%" horiz-adv-x="933" d="M57 784v461q0 201 201 201h37q201 0 201 -201v-295l145 488h129l-192 -594q29 6 61 6h37q201 0 201 -201v-461q0 -201 -201 -200h-37q-201 0 -201 200v293l-145 -485h-129l192 594q-28 -6 -61 -6h-37q-201 0 -201 200zM193 793q0 -80 77 -80h19q76 0 76 80v440 q0 80 -78 80h-17q-78 0 -77 -80v-440zM569 201q0 -80 78 -80h17q78 0 77 80v440q1 80 -77 80h-19q-76 0 -76 -80v-440z" />
<glyph unicode="&#x26;" horiz-adv-x="841" d="M45 238v288q0 156 96 242l80 70l-47 86q-49 92 -49 211v61q0 250 250 250h37q246 0 245 -246v-211h-157v209q0 98 -99 98h-16q-98 0 -98 -98v-63q0 -86 28 -142l248 -469l101 326h151l-153 -485l200 -365h-176l-98 176q-37 -106 -93.5 -147t-177.5 -41h-22 q-250 0 -250 250zM203 236q0 -98 98 -99h47q45 0 65.5 23.5t43.5 89.5l30 94l-194 358l-29 -26q-61 -53 -61 -144v-296z" />
<glyph unicode="'" horiz-adv-x="258" d="M43 899l31 535h155l-82 -535h-104z" />
<glyph unicode="(" horiz-adv-x="425" d="M74 563v307q0 258 45 383t186 267l103 -43q-117 -160 -152 -266.5t-35 -338.5v-311q0 -231 35 -337.5t152 -266.5l-103 -43q-141 141 -186 266t-45 383z" />
<glyph unicode=")" horiz-adv-x="425" d="M18 -43q117 160 152 266.5t35 337.5v311q0 231 -35 338t-152 267l103 43q141 -141 186 -266.5t45 -383.5v-307q0 -258 -45 -383t-186 -266z" />
<glyph unicode="*" horiz-adv-x="546" d="M29 944v121l155 80l-155 80v121h6l188 -111l-4 203h109l-6 -203l190 111h6v-121l-158 -80l158 -80v-121h-6l-190 109l6 -201h-109l4 201l-188 -109h-6z" />
<glyph unicode="+" horiz-adv-x="638" d="M20 657v142h228v233h147v-233h228v-142h-228v-233h-147v233h-228z" />
<glyph unicode="," horiz-adv-x="282" d="M59 -160l25 54q27 61 33 106h-56v238h160v-158q0 -66 -10 -100.5t-43 -90.5l-43 -67z" />
<glyph unicode="-" horiz-adv-x="421" d="M33 500v147h356v-147h-356z" />
<glyph unicode="." horiz-adv-x="282" d="M61 0v238h160v-238h-160z" />
<glyph unicode="/" horiz-adv-x="421" d="M8 -66l266 1565h140l-267 -1565h-139z" />
<glyph unicode="0" horiz-adv-x="733" d="M74 254v926q0 266 266 266h53q266 0 266 -266v-926q0 -266 -266 -266h-53q-266 0 -266 266zM236 246q0 -109 108 -109h45q109 0 109 109v942q0 109 -109 108h-45q-109 0 -108 -108v-942z" />
<glyph unicode="1" horiz-adv-x="405" d="M16 1178v127q66 6 105 28.5t78 73.5l24 33h84v-1440h-155v1178h-136z" />
<glyph unicode="2" horiz-adv-x="692" d="M61 0v246q0 78 24 139t87 139l231 291q63 80 64 156v217q0 109 -105 108h-32q-104 0 -105 -108v-270h-159v262q0 266 262 266h41q262 0 262 -266v-185q0 -147 -107 -278l-231 -291q-41 -51 -54.5 -88t-13.5 -102v-84h406v-152h-570z" />
<glyph unicode="3" horiz-adv-x="710" d="M57 250v227h160v-231q0 -109 109 -109h41q108 0 108 109v299q0 109 -104 108h-166v152h162q104 0 104 108v275q0 109 -104 108h-41q-104 0 -105 -108v-205h-160v197q0 266 267 266h41q266 0 266 -266v-226q0 -168 -119 -213q123 -35 123 -184v-303q0 -266 -266 -266h-54 q-262 0 -262 262z" />
<glyph unicode="4" horiz-adv-x="679" d="M35 270v148l327 1016h203v-1020h101v-144h-101v-270h-147v270h-383zM178 414h240v760z" />
<glyph unicode="5" horiz-adv-x="702" d="M74 250v248h159v-252q0 -109 105 -109h29q104 0 104 109v389q0 115 -94 115q-78 0 -158 -82h-137v766h532v-152h-381l-4 -448q86 68 185 67q100 0 160.5 -63t60.5 -172v-412q0 -266 -262 -266h-41q-258 0 -258 262z" />
<glyph unicode="6" horiz-adv-x="716" d="M74 254v926q0 266 266 266h43q133 0 195.5 -62.5t62.5 -195.5v-199h-158v199q0 109 -104 108h-39q-104 1 -104 -108v-383q84 45 170 45h10q109 0 170 -65.5t61 -172.5v-358q0 -266 -266 -266h-41q-266 0 -266 266zM236 246q0 -109 104 -109h43q104 0 104 109v336 q0 117 -110 116q-80 1 -141 -30v-422z" />
<glyph unicode="7" horiz-adv-x="571" d="M27 1282v152h501v-148l-282 -1286h-156l283 1282h-346z" />
<glyph unicode="8" horiz-adv-x="716" d="M72 254v307q0 150 123 184q-119 45 -119 213v222q0 266 266 266h33q266 0 266 -266v-222q0 -168 -119 -213q123 -35 123 -184v-307q0 -266 -266 -266h-41q-266 0 -266 266zM229 244q0 -109 109 -109h41q109 0 108 109v307q0 109 -108 108h-41q-109 1 -109 -108v-307z M231 913q0 -108 109 -108h37q109 0 108 108v277q0 109 -108 108h-37q-109 0 -109 -108v-277z" />
<glyph unicode="9" horiz-adv-x="712" d="M70 805v375q0 266 266 266h37q266 0 266 -266v-926q0 -266 -266 -266h-39q-135 0 -198.5 61.5t-63.5 196.5v182h157v-182q0 -109 105 -109h39q104 0 104 109v364q-80 -43 -170 -43h-6q-109 0 -170 65.5t-61 172.5zM229 836q0 -117 109 -117q78 0 139 31v438 q0 109 -104 108h-39q-104 0 -105 -108v-352z" />
<glyph unicode=":" horiz-adv-x="282" d="M61 0v238h160v-238h-160zM61 868v238h160v-238h-160z" />
<glyph unicode=";" horiz-adv-x="282" d="M59 -160l25 54q27 61 33 106h-56v238h160v-158q0 -66 -10 -100.5t-43 -90.5l-43 -67zM61 868v238h160v-238h-160z" />
<glyph unicode="&#x3c;" horiz-adv-x="643" d="M31 629v200l557 193v-156l-430 -135l430 -131v-160z" />
<glyph unicode="=" horiz-adv-x="643" d="M31 506v141h581v-141h-581zM31 809v141h581v-141h-581z" />
<glyph unicode="&#x3e;" horiz-adv-x="643" d="M55 440v156l430 135l-430 131v160l557 -188v-201z" />
<glyph unicode="?" horiz-adv-x="641" d="M41 926v254q0 266 266 266h27q266 0 266 -266v-199q0 -72 -21.5 -108.5t-95.5 -120.5l-75 -86q-16 -18 -22.5 -39t-7.5 -33t-1 -51v-154h-139v203q0 53 12 88t26.5 53.5t61.5 69.5l49 53q49 55 49 113v219q0 109 -104 108h-35q-104 0 -104 -108v-262h-152zM227 0v238h160 v-238h-160z" />
<glyph unicode="@" horiz-adv-x="1015" d="M82 182v746q0 186 72.5 261t246.5 75h213q174 0 247 -75t73 -261v-697q0 -88 -34.5 -126.5t-108.5 -38.5h-50q-61 0 -89.5 19t-41.5 67q-70 -88 -172 -89q-72 0 -109.5 42t-37.5 116v219q0 76 26.5 115t94.5 61l180 62v164q0 82 -76 82h-8q-80 0 -80 -82v-117h-127v123 q0 201 199 201h22q199 0 199 -201v-655q0 -57 53 -58h17q70 0 69 101v692q0 152 -54 209t-192 57h-213q-137 0 -191 -57.5t-54 -208.5v-746q0 -152 54 -209t191 -57h476v-70h-476q-178 0 -248.5 73t-70.5 263zM420 254q0 -68 59 -68q45 0 113 45v322l-117 -41 q-55 -18 -55 -82v-176z" />
<glyph unicode="A" horiz-adv-x="720" d="M35 0l221 1438h209l221 -1438h-162l-35 240h-264l-32 -240h-158zM246 387h223l-111 793z" />
<glyph unicode="B" horiz-adv-x="718" d="M78 0v1434h299q266 0 266 -267v-211q0 -176 -125 -223q129 -51 129 -225v-242q0 -266 -266 -266h-303zM240 147h137q109 0 108 109v283q0 120 -118 120h-2h-125v-512zM240 805h120q121 0 121 121v252q0 108 -106 108h-2h-133v-481z" />
<glyph unicode="C" horiz-adv-x="724" d="M74 254v926q0 266 266 266h53q262 0 262 -262v-258h-159v262q0 108 -107 108h-2h-41q-109 0 -108 -108v-942q0 -109 108 -109h45q109 0 109 109v305h159v-297q0 -266 -266 -266h-53q-266 0 -266 266z" />
<glyph unicode="D" horiz-adv-x="739" d="M78 0v1434h270q317 0 318 -318v-799q0 -317 -318 -317h-270zM242 150h98q162 0 162 165v803q0 166 -162 166h-98v-1134z" />
<glyph unicode="E" horiz-adv-x="589" d="M78 0v1434h450v-152h-286v-475h276v-150h-276v-505h290v-152h-454z" />
<glyph unicode="F" horiz-adv-x="571" d="M78 0v1434h440v-152h-276v-479h266v-150h-266v-653h-164z" />
<glyph unicode="G" horiz-adv-x="737" d="M74 254v926q0 266 266 266h61q262 0 263 -262v-197h-160v201q0 108 -107 108h-2h-49q-109 0 -108 -108v-942q0 -109 108 -109h53q109 0 109 109v366h-133v150h293v-508q0 -266 -267 -266h-61q-266 0 -266 266z" />
<glyph unicode="H" horiz-adv-x="749" d="M78 0v1434h164v-625h266v625h164v-1434h-164v655h-266v-655h-164z" />
<glyph unicode="I" horiz-adv-x="323" d="M80 0v1434h164v-1434h-164z" />
<glyph unicode="J" horiz-adv-x="479" d="M37 0v152h90q113 0 113 112v1170h163v-1168q0 -266 -266 -266h-100z" />
<glyph unicode="K" horiz-adv-x="708" d="M78 0v1434h164v-695l282 695h174l-295 -705l287 -729h-180l-268 705v-705h-164z" />
<glyph unicode="L" horiz-adv-x="555" d="M78 0v1434h164v-1282h270v-152h-434z" />
<glyph unicode="M" horiz-adv-x="1032" d="M78 0v1434h258l182 -1129l182 1129h254v-1434h-159v1186l-197 -1186h-168l-197 1186v-1186h-155z" />
<glyph unicode="N" horiz-adv-x="774" d="M78 0v1434h225l238 -1039v1039h155v-1434h-204l-259 1120v-1120h-155z" />
<glyph unicode="O" horiz-adv-x="741" d="M74 254v926q0 266 266 266h61q266 0 267 -266v-926q0 -266 -267 -266h-61q-266 0 -266 266zM238 246q0 -109 108 -109h49q109 0 109 109v942q0 108 -107 108h-2h-49q-109 0 -108 -108v-942z" />
<glyph unicode="P" horiz-adv-x="681" d="M78 0v1434h282q266 0 267 -267v-362q0 -266 -267 -266h-118v-539h-164zM242 688h112q109 0 109 109v379q0 108 -107 108h-2h-112v-596z" />
<glyph unicode="Q" horiz-adv-x="741" d="M74 254v926q0 266 266 266h61q267 0 267 -266v-901q0 -184 -125 -242l162 -64l-82 -129l-236 144h-47q-266 0 -266 266zM238 246q0 -109 108 -109h49q109 0 109 109v942q0 108 -107 108h-2h-49q-109 0 -108 -108v-942z" />
<glyph unicode="R" horiz-adv-x="724" d="M78 0v1434h305q266 0 266 -267v-266q0 -174 -127 -225q129 -35 129 -193v-483h-164v477q0 125 -125 125h-120v-602h-164zM242 748h123q121 0 120 120v308q0 108 -106 108h-2h-135v-536z" />
<glyph unicode="S" horiz-adv-x="712" d="M72 250v301h159v-307q0 -109 109 -109h33q109 0 108 109v215q0 51 -16 79.5t-55 57.5l-201 145q-78 55 -107.5 116t-29.5 151v172q0 266 266 266h41q262 0 262 -262v-258h-160v264q0 108 -106 108h-2h-29q-109 0 -108 -108v-180q0 -51 17 -80t56 -58l199 -143 q78 -57 107.5 -115.5t29.5 -150.5v-209q0 -266 -266 -266h-45q-262 0 -262 262z" />
<glyph unicode="T" horiz-adv-x="634" d="M20 1282v152h594v-152h-215v-1282h-163v1282h-216z" />
<glyph unicode="U" horiz-adv-x="735" d="M76 254v1180h164v-1188q0 -109 108 -109h39q109 0 109 109v1188h163v-1180q0 -266 -266 -266h-51q-266 0 -266 266z" />
<glyph unicode="V" horiz-adv-x="704" d="M35 1434h166l153 -1096l154 1096h162l-228 -1438h-180z" />
<glyph unicode="W" horiz-adv-x="1110" d="M53 1434h164l125 -1215l133 1215h164l133 -1213l125 1213h160l-174 -1434h-213l-115 1028l-115 -1028h-213z" />
<glyph unicode="X" horiz-adv-x="708" d="M39 0l217 715l-213 719h164l149 -560l150 560h160l-213 -717l217 -717h-164l-154 557l-153 -557h-160z" />
<glyph unicode="Y" horiz-adv-x="663" d="M18 1434h168l146 -703l151 703h162l-231 -940v-494h-164v492z" />
<glyph unicode="Z" horiz-adv-x="583" d="M45 0v150l332 1134h-322v150h486v-150l-332 -1134h332v-150h-496z" />
<glyph unicode="[" horiz-adv-x="428" d="M90 -66v1565h320v-127h-172v-1311h172v-127h-320z" />
<glyph unicode="\" horiz-adv-x="421" d="M8 1499h139l267 -1565h-140z" />
<glyph unicode="]" horiz-adv-x="428" d="M18 61h172v1311h-172v127h320v-1565h-320v127z" />
<glyph unicode="^" horiz-adv-x="819" d="M152 1014l186 420h143l187 -420h-138l-120 278l-121 -278h-137z" />
<glyph unicode="_" horiz-adv-x="911" d="M-4 -45h919v-139h-919v139z" />
<glyph unicode="`" horiz-adv-x="1024" d="M428 1413h158l73 -215h-104z" />
<glyph unicode="a" d="M66 182v203q0 100 36.5 151.5t126.5 81.5l209 72v184q0 100 -98 101h-12q-98 0 -99 -101v-137h-151v131q0 250 250 250h16q250 0 250 -250v-868h-156v70q-86 -82 -190 -82h-2q-180 0 -180 194zM221 215q0 -80 76 -80q66 0 141 51v361l-141 -49q-43 -16 -59.5 -42 t-16.5 -73v-168z" />
<glyph unicode="b" horiz-adv-x="684" d="M72 0v1454h155v-420q80 84 191 84q98 0 148 -59.5t50 -159.5v-692q0 -100 -50 -159.5t-148 -59.5q-111 0 -191 80v-68h-155zM227 193q68 -57 144 -58q90 0 90 90v656q0 90 -90 90q-76 -1 -144 -58v-720z" />
<glyph unicode="c" horiz-adv-x="665" d="M66 238v630q0 250 249 250h39q246 0 246 -246v-180h-154v182q0 98 -98 99h-29q-98 0 -98 -99v-643q0 -98 98 -98h31q98 0 99 98v220h153v-213q0 -250 -250 -250h-37q-250 0 -249 250z" />
<glyph unicode="d" horiz-adv-x="684" d="M68 207v692q0 100 50 159.5t148 59.5q111 0 191 -80v416h155v-1454h-155v72q-80 -84 -191 -84q-98 0 -148 59t-50 160zM223 225q0 -90 90 -90q76 1 144 58v720q-68 57 -144 58q-90 0 -90 -90v-656z" />
<glyph unicode="e" d="M66 238v630q0 250 249 250h33q250 0 250 -250v-372h-377v-265q0 -98 98 -98h29q98 0 98 98v127h152v-120q0 -250 -250 -250h-33q-250 0 -249 250zM221 643h221v231q0 98 -98 99h-25q-98 -1 -98 -99v-231z" />
<glyph unicode="f" horiz-adv-x="401" d="M43 963v143h63v125q0 223 224 223h63v-143h-57q-74 0 -74 -74v-131h125v-143h-125v-963h-156v963h-63z" />
<glyph unicode="g" horiz-adv-x="684" d="M68 332v567q0 100 50 159.5t148 59.5q111 0 191 -80v68h155v-1100q0 -239 -239 -239h-2h-82q-217 0 -217 215v59h145v-53q0 -86 80 -86h80q80 0 80 86v200q-81 -75 -188 -75h-3q-98 0 -148 59t-50 160zM223 350q0 -90 90 -90q74 0 144 53v600q-68 57 -144 58 q-90 0 -90 -90v-531z" />
<glyph unicode="h" horiz-adv-x="681" d="M72 0v1454h155v-420q88 84 197 84q188 0 188 -198v-920h-155v887q0 84 -80 84q-72 0 -150 -56v-915h-155z" />
<glyph unicode="i" horiz-adv-x="311" d="M74 1219v174h164v-174h-164zM78 0v1106h155v-1106h-155z" />
<glyph unicode="j" horiz-adv-x="311" d="M0 -90h4q74 0 74 74v1122h155v-1129q0 -206 -204 -206h-2h-27v139zM74 1219v174h164v-174h-164z" />
<glyph unicode="k" horiz-adv-x="643" d="M72 0v1454h155v-885l242 537h166l-258 -541l250 -565h-170l-230 549v-549h-155z" />
<glyph unicode="l" horiz-adv-x="311" d="M78 0v1454h155v-1454h-155z" />
<glyph unicode="m" horiz-adv-x="1042" d="M72 0v1106h155v-72q88 84 191 84q117 0 162 -90q106 90 211 90q90 0 136 -51t46 -143v-924h-156v891q0 80 -74 80q-65 -1 -143 -56v-915h-156v891q0 80 -73 80q-66 0 -144 -56v-915h-155z" />
<glyph unicode="n" horiz-adv-x="681" d="M72 0v1106h155v-72q88 84 197 84q188 0 188 -198v-920h-155v887q0 84 -80 84q-72 0 -150 -56v-915h-155z" />
<glyph unicode="o" horiz-adv-x="675" d="M66 238v630q0 250 249 250h45q250 0 250 -250v-630q0 -250 -250 -250h-45q-250 0 -249 250zM221 231q0 -98 98 -98h37q98 0 99 98v643q-1 99 -99 99h-37q-98 0 -98 -99v-643z" />
<glyph unicode="p" horiz-adv-x="684" d="M72 -225v1331h155v-72q80 84 191 84q98 0 148 -59.5t50 -159.5v-692q0 -100 -50 -159.5t-148 -59.5q-111 0 -191 80v-293h-155zM227 193q68 -57 144 -58q90 0 90 90v656q0 90 -90 90q-76 -1 -144 -58v-720z" />
<glyph unicode="q" horiz-adv-x="684" d="M68 207v692q0 100 50 159.5t148 59.5q111 0 191 -80v68h155v-1331h-155v297q-80 -84 -191 -84q-98 0 -148 59t-50 160zM223 225q0 -90 90 -90q76 1 144 58v720q-68 57 -144 58q-90 0 -90 -90v-656z" />
<glyph unicode="r" horiz-adv-x="434" d="M72 0v1106h155v-117q37 68 77 97.5t102 29.5v-176q-111 -8 -179 -70v-870h-155z" />
<glyph unicode="s" horiz-adv-x="651" d="M63 233v164h154v-174q0 -94 94 -94h31q94 0 94 94v105q0 68 -57 104l-184 115q-70 45 -99.5 92t-29.5 127v102q0 250 249 250h27q246 0 246 -246v-155h-154v166q0 94 -94 94h-27q-94 0 -94 -94v-97q0 -70 57 -104l185 -115q70 -45 99.5 -92t29.5 -127v-110 q0 -250 -250 -250h-31q-246 0 -246 245z" />
<glyph unicode="t" horiz-adv-x="409" d="M39 963v143h74v184h155v-184h113v-143h-113v-963h-155v963h-74z" />
<glyph unicode="u" horiz-adv-x="681" d="M70 186v920h155v-887q0 -84 80 -84q72 0 150 55v916h155v-1106h-155v72q-88 -84 -197 -84q-188 0 -188 198z" />
<glyph unicode="v" horiz-adv-x="647" d="M37 1106h158l131 -864l131 864h153l-200 -1106h-172z" />
<glyph unicode="w" horiz-adv-x="952" d="M39 1106h154l96 -813l114 813h150l117 -813l94 813h149l-168 -1106h-159l-107 772l-112 -772h-160z" />
<glyph unicode="x" horiz-adv-x="606" d="M8 0l205 541l-201 565h164l129 -389l129 389h160l-203 -541l207 -565h-164l-133 391l-133 -391h-160z" />
<glyph unicode="y" horiz-adv-x="647" d="M33 1106h157l136 -793l135 793h153l-264 -1331h-153l51 239z" />
<glyph unicode="z" horiz-adv-x="532" d="M37 0v143l299 820h-289v143h449v-143l-303 -820h303v-143h-459z" />
<glyph unicode="{" horiz-adv-x="524" d="M29 666v106l69 12q39 8 56.5 23.5t17.5 50.5v156q0 199 40 285.5t191 220.5l103 -43q-127 -145 -155.5 -218t-28.5 -243v-84q0 -166 -123 -213q123 -35 123 -184v-117q0 -170 28.5 -243t155.5 -218l-103 -43q-152 133 -191.5 220t-39.5 286v158q0 35 -17.5 50t-56.5 23z " />
<glyph unicode="|" horiz-adv-x="552" d="M211 -137v1700h131v-1700h-131z" />
<glyph unicode="}" horiz-adv-x="524" d="M18 -43q127 145 156 218t29 243v117q0 150 123 184q-123 47 -123 213v84q0 170 -29 242.5t-156 218.5l103 43q152 -133 191.5 -220.5t39.5 -285.5v-156q0 -35 17.5 -50t56.5 -24l70 -12v-106l-70 -15q-39 -8 -56.5 -23t-17.5 -50v-158q0 -199 -40 -286t-191 -220z" />
<glyph unicode="~" horiz-adv-x="819" d="M172 600v141q0 94 94 95h15q49 0 106 -37l88 -60q39 -25 49 -24h2q20 0 21 24v97h104v-142q0 -94 -94 -94h-14q-49 0 -107 37l-88 59q-39 25 -49 25h-2q-20 0 -21 -25v-96h-104z" />
<glyph unicode="&#xa1;" horiz-adv-x="323" d="M82 0v330l51 702h57l52 -702v-330h-160zM82 1196v238h160v-238h-160z" />
<glyph unicode="&#xa2;" d="M70 391v660q0 221 196 245v144h135v-144q190 -27 191 -245v-177h-152v183q0 92 -90 98h-28q-98 0 -99 -98v-672q0 -96 88 -98h33q98 0 98 98v219h152v-213q0 -217 -193 -246v-151h-135v149q-197 25 -196 248z" />
<glyph unicode="&#xa3;" horiz-adv-x="755" d="M49 0v152h84v419h-84v148h84v461q0 266 266 266h33q262 0 262 -262v-238h-159v242q0 109 -105 108h-29q-104 0 -104 -108v-469h262v-148h-262v-419h401v-152h-649z" />
<glyph unicode="&#xa5;" horiz-adv-x="659" d="M23 1434h163l144 -674l149 674h158l-215 -838h176v-113h-188v-96h188v-113h-188v-274h-160v274h-189v113h189v96h-189v113h175z" />
<glyph unicode="&#xa7;" horiz-adv-x="714" d="M76 250v176h153v-182q0 -109 109 -109h29q109 0 108 109v168q0 37 -18.5 55t-57.5 35l-186 76q-78 31 -104.5 66.5t-26.5 105.5v26l403 -164q86 -35 117 -79t31 -140v-139q0 -266 -266 -266h-29q-262 0 -262 262zM82 1040v140q0 266 266 266h29q262 0 262 -262v-176h-154 v182q0 109 -108 108h-29q-109 0 -108 -108v-168q0 -37 18 -55.5t57 -34.5l187 -76q78 -31 104.5 -66.5t26.5 -105.5v-27l-404 164q-86 35 -116.5 79t-30.5 140z" />
<glyph unicode="&#xa8;" horiz-adv-x="1024" d="M328 1198v191h135v-191h-135zM561 1198v191h135v-191h-135z" />
<glyph unicode="&#xa9;" horiz-adv-x="1015" d="M82 324v786q0 178 77 257t242 79h213q166 0 243 -79t77 -257v-786q0 -178 -77 -257t-243 -79h-213q-166 0 -242.5 78.5t-76.5 257.5zM135 324q0 -152 64.5 -219.5t201.5 -67.5h213q137 0 202 67.5t65 219.5v786q0 152 -64.5 219.5t-202.5 67.5h-213q-137 0 -201.5 -67.5 t-64.5 -219.5v-786zM301 371v694q0 186 197 186h26q195 0 195 -186v-186h-125v176q0 70 -70 69h-22q-72 0 -72 -69v-672q0 -39 16.5 -55.5t55.5 -16.5h24q72 0 72 72v205h125v-217q0 -186 -197 -187h-28q-197 0 -197 187z" />
<glyph unicode="&#xaa;" horiz-adv-x="468" d="M70 965v84q0 98 90 127l139 43v79q0 57 -57 58h-13q-57 0 -57 -58v-55h-96v66q0 137 151 137h19q152 0 151 -137v-459h-98v43q-61 -49 -117 -49h-4q-108 0 -108 121zM168 985q0 -47 45 -47q43 0 86 37v153l-90 -26q-41 -16 -41 -60v-57z" />
<glyph unicode="&#xab;" horiz-adv-x="493" d="M10 573l119 318h129l-100 -318l100 -317h-123zM231 573l105 318h129l-86 -318l86 -317h-123z" />
<glyph unicode="&#xad;" horiz-adv-x="421" d="M33 500v147h356v-147h-356z" />
<glyph unicode="&#xae;" horiz-adv-x="606" d="M49 885v362q0 106 46 152.5t149 46.5h118q102 0 148.5 -46.5t46.5 -152.5v-362q0 -106 -46 -152.5t-149 -46.5h-118q-102 0 -148.5 46t-46.5 153zM90 885q0 -86 36 -123t118 -37h118q82 0 118 37t36 123v362q0 86 -35 123t-119 37h-118q-82 0 -118 -37t-36 -123v-362z M180 815v504h137q119 0 119 -90v-109q0 -58 -57 -76q57 -14 57 -65v-164h-78v154q0 43 -53 43h-47v-197h-78zM258 1079h49q51 0 51 39v96q0 35 -43 35h-57v-170z" />
<glyph unicode="&#xaf;" horiz-adv-x="1024" d="M313 1212v136h398v-136h-398z" />
<glyph unicode="&#xb0;" horiz-adv-x="526" d="M49 885v375q0 186 184 186h62q182 0 182 -186v-375q0 -187 -182 -187h-62q-184 0 -184 187zM176 901q0 -76 72 -76h35q72 0 71 76v340q1 76 -71 76h-35q-72 0 -72 -76v-340z" />
<glyph unicode="&#xb1;" horiz-adv-x="643" d="M20 305v141h603v-141h-603zM23 786v142h227v231h147v-231h228v-142h-228v-231h-147v231h-227z" />
<glyph unicode="&#xb4;" horiz-adv-x="1024" d="M406 1198l73 215h158l-127 -215h-104z" />
<glyph unicode="&#xb6;" horiz-adv-x="686" d="M74 350v731q0 352 352 353h182v-1434h-127v1290h-114v-1290q-293 29 -293 350z" />
<glyph unicode="&#xb7;" horiz-adv-x="282" d="M61 485v238h160v-238h-160z" />
<glyph unicode="&#xb8;" horiz-adv-x="1024" d="M424 -193l84 193h96l-39 -193h-141z" />
<glyph unicode="&#xba;" horiz-adv-x="485" d="M70 997v295q0 154 151 154h45q150 0 150 -154v-295q0 -153 -150 -153h-45q-152 0 -151 153zM170 999q0 -63 59 -63h29q59 0 59 63v291q0 64 -59 64h-29q-59 0 -59 -64v-291z" />
<glyph unicode="&#xbb;" horiz-adv-x="493" d="M29 256l86 317l-86 318h129l104 -318l-110 -317h-123zM236 256l100 317l-100 318h129l118 -318l-125 -317h-122z" />
<glyph unicode="&#xbf;" horiz-adv-x="641" d="M41 254v199q0 72 21.5 108.5t95.5 120.5l75 86q16 18 22.5 38.5t7.5 33t1 51.5v153h139v-202q0 -53 -12 -88t-26.5 -53.5t-61.5 -69.5l-49 -53q-49 -55 -49 -113v-219q0 -109 104 -109h35q104 0 105 109v262h151v-254q0 -266 -266 -266h-27q-266 0 -266 266zM254 1196 v238h160v-238h-160z" />
<glyph unicode="&#xc0;" horiz-adv-x="720" d="M35 0l221 1438h209l221 -1438h-162l-35 240h-264l-32 -240h-158zM172 1700h158l86 -174h-105zM246 387h223l-111 793z" />
<glyph unicode="&#xc1;" horiz-adv-x="720" d="M35 0l221 1438h209l221 -1438h-162l-35 240h-264l-32 -240h-158zM246 387h223l-111 793zM305 1526l86 174h158l-139 -174h-105z" />
<glyph unicode="&#xc2;" horiz-adv-x="720" d="M35 0l221 1438h209l221 -1438h-162l-35 240h-264l-32 -240h-158zM152 1526l139 190h139l139 -190h-108l-101 90l-100 -90h-108zM246 387h223l-111 793z" />
<glyph unicode="&#xc3;" horiz-adv-x="720" d="M35 0l221 1438h209l221 -1438h-162l-35 240h-264l-32 -240h-158zM147 1526v98q1 96 93 96h6q53 0 96 -26l70 -43q20 -12 37 -13h2q18 0 18 25v57h104v-98q0 -96 -92 -96h-6q-53 0 -96 26l-70 43q-20 12 -37 13h-2q-18 0 -18 -25v-57h-105zM246 387h223l-111 793z" />
<glyph unicode="&#xc4;" horiz-adv-x="720" d="M35 0l221 1438h209l221 -1438h-162l-35 240h-264l-32 -240h-158zM172 1526v149h139v-149h-139zM246 387h223l-111 793zM410 1526v149h139v-149h-139z" />
<glyph unicode="&#xc5;" horiz-adv-x="720" d="M35 0l207 1348q-76 23 -76 100v10q0 104 125 105h139q125 -1 125 -105v-10q0 -78 -78 -100l209 -1348h-162l-35 240h-264l-32 -240h-158zM217 1446q0 -57 80 -57h127q80 0 80 57v14q0 57 -80 58h-127q-80 0 -80 -58v-14zM246 387h223l-111 793z" />
<glyph unicode="&#xc6;" horiz-adv-x="952" d="M39 0l293 1434h559v-152h-287v-475h277v-150h-277v-505h291v-152h-455v240h-198l-45 -240h-158zM268 387h172v916z" />
<glyph unicode="&#xc7;" horiz-adv-x="724" d="M74 254v926q0 266 266 266h53q262 0 262 -262v-258h-159v262q0 109 -109 108h-41q-109 0 -108 -108v-942q0 -109 108 -109h45q109 0 109 109v305h159v-297q0 -250 -229 -264l-37 -183h-141l78 181q-256 6 -256 266z" />
<glyph unicode="&#xc8;" horiz-adv-x="589" d="M78 0v1434h450v-152h-286v-475h276v-150h-276v-505h290v-152h-454zM117 1700h157l86 -174h-104z" />
<glyph unicode="&#xc9;" horiz-adv-x="589" d="M78 0v1434h450v-152h-286v-475h276v-150h-276v-505h290v-152h-454zM250 1526l86 174h158l-140 -174h-104z" />
<glyph unicode="&#xca;" horiz-adv-x="589" d="M78 0v1434h450v-152h-286v-475h276v-150h-276v-505h290v-152h-454zM96 1526l140 190h139l139 -190h-108l-101 90l-100 -90h-109z" />
<glyph unicode="&#xcb;" horiz-adv-x="589" d="M78 0v1434h450v-152h-286v-475h276v-150h-276v-505h290v-152h-454zM117 1526v149h139v-149h-139zM354 1526v149h140v-149h-140z" />
<glyph unicode="&#xcc;" horiz-adv-x="323" d="M-27 1700h158l86 -174h-104zM80 0v1434h164v-1434h-164z" />
<glyph unicode="&#xcd;" horiz-adv-x="323" d="M80 0v1434h164v-1434h-164zM106 1526l87 174h157l-139 -174h-105z" />
<glyph unicode="&#xce;" horiz-adv-x="323" d="M-47 1526l139 190h139l140 -190h-109l-100 90l-101 -90h-108zM80 0v1434h164v-1434h-164z" />
<glyph unicode="&#xcf;" horiz-adv-x="323" d="M-27 1526v149h140v-149h-140zM80 0v1434h164v-1434h-164zM211 1526v149h139v-149h-139z" />
<glyph unicode="&#xd0;" horiz-adv-x="768" d="M8 657v140h98v637h271q317 0 317 -318v-799q0 -317 -317 -317h-271v657h-98zM270 150h99q162 0 161 165v803q0 166 -161 166h-99v-487h156v-140h-156v-507z" />
<glyph unicode="&#xd1;" horiz-adv-x="774" d="M78 0v1434h225l238 -1039v1039h155v-1434h-204l-259 1120v-1120h-155zM174 1526v98q0 96 92 96h6q53 0 97 -26l69 -43q20 -12 37 -13h2q18 0 19 25v57h104v-98q0 -96 -92 -96h-6q-53 0 -96 26l-70 43q-20 12 -37 13h-2q-18 0 -18 -25v-57h-105z" />
<glyph unicode="&#xd2;" horiz-adv-x="741" d="M74 254v926q0 266 266 266h61q266 0 267 -266v-926q0 -266 -267 -266h-61q-266 0 -266 266zM182 1700h158l86 -174h-104zM238 246q0 -109 108 -109h49q109 0 109 109v942q0 109 -109 108h-49q-109 0 -108 -108v-942z" />
<glyph unicode="&#xd3;" horiz-adv-x="741" d="M74 254v926q0 266 266 266h61q266 0 267 -266v-926q0 -266 -267 -266h-61q-266 0 -266 266zM238 246q0 -109 108 -109h49q109 0 109 109v942q0 109 -109 108h-49q-109 0 -108 -108v-942zM315 1526l86 174h158l-139 -174h-105z" />
<glyph unicode="&#xd4;" horiz-adv-x="741" d="M74 254v926q0 266 266 266h61q266 0 267 -266v-926q0 -266 -267 -266h-61q-266 0 -266 266zM162 1526l139 190h139l140 -190h-109l-100 90l-101 -90h-108zM238 246q0 -109 108 -109h49q109 0 109 109v942q0 109 -109 108h-49q-109 0 -108 -108v-942z" />
<glyph unicode="&#xd5;" horiz-adv-x="741" d="M74 254v926q0 266 266 266h61q266 0 267 -266v-926q0 -266 -267 -266h-61q-266 0 -266 266zM158 1526v98q0 96 92 96h6q53 0 96 -26l70 -43q20 -12 37 -13h2q18 0 18 25v57h105v-98q0 -96 -92 -96h-7q-53 0 -96 26l-70 43q-20 12 -36 13h-2q-18 0 -19 -25v-57h-104z M238 246q0 -109 108 -109h49q109 0 109 109v942q0 109 -109 108h-49q-109 0 -108 -108v-942z" />
<glyph unicode="&#xd6;" horiz-adv-x="741" d="M74 254v926q0 266 266 266h61q266 0 267 -266v-926q0 -266 -267 -266h-61q-266 0 -266 266zM182 1526v149h140v-149h-140zM238 246q0 -109 108 -109h49q109 0 109 109v942q0 109 -109 108h-49q-109 0 -108 -108v-942zM420 1526v149h139v-149h-139z" />
<glyph unicode="&#xd7;" horiz-adv-x="643" d="M45 551l176 176l-176 176l102 103l177 -177l176 177l100 -101l-176 -176l176 -176l-102 -102l-176 176l-177 -176z" />
<glyph unicode="&#xd8;" horiz-adv-x="741" d="M74 254v926q0 266 266 266h61q266 0 267 -266v-926q0 -266 -267 -266h-61q-266 0 -266 266zM233 387l242 885q-29 25 -80 24h-49q-108 1 -108 -108zM266 162q25 -25 80 -25h49q109 0 109 109l4 801z" />
<glyph unicode="&#xd9;" horiz-adv-x="735" d="M76 254v1180h164v-1188q0 -109 108 -109h39q109 0 109 109v1188h163v-1180q0 -266 -266 -266h-51q-266 0 -266 266zM178 1700h158l86 -174h-105z" />
<glyph unicode="&#xda;" horiz-adv-x="735" d="M76 254v1180h164v-1188q0 -109 108 -109h39q109 0 109 109v1188h163v-1180q0 -266 -266 -266h-51q-266 0 -266 266zM311 1526l86 174h158l-139 -174h-105z" />
<glyph unicode="&#xdb;" horiz-adv-x="735" d="M76 254v1180h164v-1188q0 -109 108 -109h39q109 0 109 109v1188h163v-1180q0 -266 -266 -266h-51q-266 0 -266 266zM158 1526l139 190h139l139 -190h-108l-100 90l-101 -90h-108z" />
<glyph unicode="&#xdc;" horiz-adv-x="735" d="M76 254v1180h164v-1188q0 -109 108 -109h39q109 0 109 109v1188h163v-1180q0 -266 -266 -266h-51q-266 0 -266 266zM178 1526v149h139v-149h-139zM416 1526v149h139v-149h-139z" />
<glyph unicode="&#xdd;" horiz-adv-x="663" d="M18 1434h168l146 -703l151 703h162l-231 -940v-494h-164v492zM276 1526l86 174h158l-139 -174h-105z" />
<glyph unicode="&#xde;" horiz-adv-x="681" d="M78 0v1434h164v-265h118q266 0 267 -266v-362q0 -266 -267 -267h-118v-274h-164zM242 424h112q109 0 109 108v379q0 109 -109 109h-112v-596z" />
<glyph unicode="&#xdf;" horiz-adv-x="688" d="M72 0v1200q0 254 254 254h39q254 0 253 -254v-233q0 -168 -118 -213q123 -35 123 -185v-319q0 -250 -250 -250h-80v145h78q98 0 98 99v319q0 104 -104 105h-72v147h67q104 0 105 105v284q0 102 -103 103h-32q-102 0 -103 -103v-1204h-155z" />
<glyph unicode="&#xe0;" d="M66 182v203q0 100 36.5 151.5t126.5 81.5l209 72v184q0 100 -98 101h-12q-98 0 -99 -101v-137h-151v131q0 250 250 250h16q250 0 250 -250v-868h-156v70q-86 -82 -190 -82q-182 -1 -182 194zM172 1413h158l73 -215h-104zM221 215q0 -80 76 -80q66 0 141 51v361l-141 -49 q-43 -16 -59.5 -42t-16.5 -73v-168z" />
<glyph unicode="&#xe1;" d="M66 182v203q0 100 36.5 151.5t126.5 81.5l209 72v184q0 100 -98 101h-12q-98 0 -99 -101v-137h-151v131q0 250 250 250h16q250 0 250 -250v-868h-156v70q-86 -82 -190 -82q-182 -1 -182 194zM221 215q0 -80 76 -80q66 0 141 51v361l-141 -49q-43 -16 -59.5 -42t-16.5 -73 v-168zM293 1198l74 215h157l-127 -215h-104z" />
<glyph unicode="&#xe2;" d="M66 182v203q0 100 36.5 151.5t126.5 81.5l209 72v184q0 100 -98 101h-12q-98 0 -99 -101v-137h-151v131q0 250 250 250h16q250 0 250 -250v-868h-156v70q-86 -82 -190 -82q-182 -1 -182 194zM147 1198l132 215h139l131 -215h-109l-92 109l-92 -109h-109zM221 215 q0 -80 76 -80q66 0 141 51v361l-141 -49q-43 -16 -59.5 -42t-16.5 -73v-168z" />
<glyph unicode="&#xe3;" d="M66 182v203q0 100 36.5 151.5t126.5 81.5l209 72v184q0 100 -98 101h-12q-98 0 -99 -101v-137h-151v131q0 250 250 250h16q250 0 250 -250v-868h-156v70q-86 -82 -190 -82q-182 -1 -182 194zM139 1198v119q0 96 94 96h5q53 0 102 -37l49 -37q33 -25 43 -24h2q18 0 19 24 v74h104v-119q0 -96 -94 -96h-4q-53 0 -103 37l-49 37q-33 25 -43 24h-2q-18 0 -18 -24v-74h-105zM221 215q0 -80 76 -80q66 0 141 51v361l-141 -49q-43 -16 -59.5 -42t-16.5 -73v-168z" />
<glyph unicode="&#xe4;" d="M66 182v203q0 100 36.5 151.5t126.5 81.5l209 72v184q0 100 -98 101h-12q-98 0 -99 -101v-137h-151v131q0 250 250 250h16q250 0 250 -250v-868h-156v70q-86 -82 -190 -82q-182 -1 -182 194zM164 1198v191h135v-191h-135zM221 215q0 -80 76 -80q66 0 141 51v361l-141 -49 q-43 -16 -59.5 -42t-16.5 -73v-168zM397 1198v191h135v-191h-135z" />
<glyph unicode="&#xe5;" d="M66 182v203q0 100 36.5 151.5t126.5 81.5l209 72v184q0 100 -98 101h-12q-98 0 -99 -101v-137h-151v131q0 250 250 250h16q250 0 250 -250v-868h-156v70q-86 -82 -190 -82q-182 -1 -182 194zM178 1300v11q0 109 129 108h82q129 1 129 -108v-11q0 -109 -129 -108h-82 q-129 0 -129 108zM221 215q0 -80 76 -80q66 0 141 51v361l-141 -49q-43 -16 -59.5 -42t-16.5 -73v-168zM229 1300q0 -63 88 -63h64q86 0 86 63v11q0 63 -86 63h-66q-86 0 -86 -63v-11z" />
<glyph unicode="&#xe6;" horiz-adv-x="1034" d="M66 182v215q0 100 36.5 151.5t126.5 82.5l209 71v172q0 100 -98 101h-12q-98 0 -99 -101v-137h-151v131q0 250 250 250h16q115 0 172 -67q57 67 172 67h33q250 0 250 -250v-372h-377v-265q0 -98 98 -98h29q98 0 98 98v144h152v-137q0 -250 -250 -250h-33q-152 0 -213 94 l-24 -16q-43 -29 -67 -42.5t-60.5 -24.5t-75.5 -11q-182 0 -182 194zM221 215q0 -80 76 -80q66 0 141 51v373l-141 -49q-43 -14 -59.5 -40t-16.5 -75v-180zM594 643h221v231q0 98 -98 99h-25q-98 -1 -98 -99v-231z" />
<glyph unicode="&#xe7;" horiz-adv-x="665" d="M66 238v630q0 250 249 250h39q246 0 246 -246v-180h-154v182q0 98 -98 99h-29q-98 0 -98 -99v-643q0 -98 98 -98h31q98 0 99 98v220h153v-213q0 -231 -215 -248l-37 -183h-141l78 183q-221 12 -221 248z" />
<glyph unicode="&#xe8;" d="M66 238v630q0 250 249 250h33q250 0 250 -250v-372h-377v-265q0 -98 98 -98h29q98 0 98 98v127h152v-120q0 -250 -250 -250h-33q-250 0 -249 250zM156 1413h157l74 -215h-104zM221 643h221v231q0 98 -98 99h-25q-98 -1 -98 -99v-231z" />
<glyph unicode="&#xe9;" d="M66 238v630q0 250 249 250h33q250 0 250 -250v-372h-377v-265q0 -98 98 -98h29q98 0 98 98v127h152v-120q0 -250 -250 -250h-33q-250 0 -249 250zM221 643h221v231q0 98 -98 99h-25q-98 -1 -98 -99v-231zM276 1198l74 215h158l-127 -215h-105z" />
<glyph unicode="&#xea;" d="M66 238v630q0 250 249 250h33q250 0 250 -250v-372h-377v-265q0 -98 98 -98h29q98 0 98 98v127h152v-120q0 -250 -250 -250h-33q-250 0 -249 250zM131 1198l131 215h139l131 -215h-108l-92 109l-92 -109h-109zM221 643h221v231q0 98 -98 99h-25q-98 -1 -98 -99v-231z" />
<glyph unicode="&#xeb;" d="M66 238v630q0 250 249 250h33q250 0 250 -250v-372h-377v-265q0 -98 98 -98h29q98 0 98 98v127h152v-120q0 -250 -250 -250h-33q-250 0 -249 250zM147 1198v191h136v-191h-136zM221 643h221v231q0 98 -98 99h-25q-98 -1 -98 -99v-231zM381 1198v191h135v-191h-135z" />
<glyph unicode="&#xec;" horiz-adv-x="311" d="M-20 1413h157l74 -215h-105zM78 0v1106h155v-1106h-155z" />
<glyph unicode="&#xed;" horiz-adv-x="311" d="M78 0v1106h155v-1106h-155zM100 1198l74 215h158l-127 -215h-105z" />
<glyph unicode="&#xee;" horiz-adv-x="311" d="M-45 1198l131 215h139l131 -215h-108l-92 109l-93 -109h-108zM78 0v1106h155v-1106h-155z" />
<glyph unicode="&#xef;" horiz-adv-x="311" d="M-29 1198v191h135v-191h-135zM78 0v1106h155v-1106h-155zM205 1198v191h135v-191h-135z" />
<glyph unicode="&#xf0;" horiz-adv-x="679" d="M66 238v657q0 100 50 159.5t148 59.5q113 0 199 -70v62q0 47 -18.5 69.5t-69.5 45.5l-199 88l70 133l162 -74l49 86h147l-86 -139q92 -59 92 -189v-888q0 -250 -250 -250h-45q-250 0 -249 250zM221 231q0 -98 98 -98h37q98 0 99 98v643q-1 99 -99 99h-37q-98 0 -98 -99 v-643z" />
<glyph unicode="&#xf1;" horiz-adv-x="681" d="M72 0v1106h155v-72q88 84 197 84q188 0 188 -198v-920h-155v887q0 84 -80 84q-72 0 -150 -56v-915h-155zM133 1198v119q0 96 94 96h4q53 0 103 -37l49 -37q35 -25 43 -24h2q18 0 18 24v74h105v-119q0 -96 -94 -96h-4q-53 0 -103 37l-49 37q-33 25 -43 24h-2 q-18 0 -18 -24v-74h-105z" />
<glyph unicode="&#xf2;" horiz-adv-x="675" d="M66 238v630q0 250 249 250h45q250 0 250 -250v-630q0 -250 -250 -250h-45q-250 0 -249 250zM162 1413h157l74 -215h-104zM221 231q0 -98 98 -98h37q98 0 99 98v643q-1 99 -99 99h-37q-98 0 -98 -99v-643z" />
<glyph unicode="&#xf3;" horiz-adv-x="675" d="M66 238v630q0 250 249 250h45q250 0 250 -250v-630q0 -250 -250 -250h-45q-250 0 -249 250zM221 231q0 -98 98 -98h37q98 0 99 98v643q-1 99 -99 99h-37q-98 0 -98 -99v-643zM283 1198l73 215h158l-127 -215h-104z" />
<glyph unicode="&#xf4;" horiz-adv-x="675" d="M66 238v630q0 250 249 250h45q250 0 250 -250v-630q0 -250 -250 -250h-45q-250 0 -249 250zM137 1198l131 215h140l131 -215h-109l-92 109l-92 -109h-109zM221 231q0 -98 98 -98h37q98 0 99 98v643q-1 99 -99 99h-37q-98 0 -98 -99v-643z" />
<glyph unicode="&#xf5;" horiz-adv-x="675" d="M66 238v630q0 250 249 250h45q250 0 250 -250v-630q0 -250 -250 -250h-45q-250 0 -249 250zM129 1198v119q0 96 94 96h4q53 0 103 -37l49 -37q35 -25 43 -24h2q18 0 18 24v74h105v-119q0 -96 -94 -96h-4q-53 0 -103 37l-49 37q-35 25 -43 24h-2q-18 0 -19 -24v-74h-104z M221 231q0 -98 98 -98h37q98 0 99 98v643q-1 99 -99 99h-37q-98 0 -98 -99v-643z" />
<glyph unicode="&#xf6;" horiz-adv-x="675" d="M66 238v630q0 250 249 250h45q250 0 250 -250v-630q0 -250 -250 -250h-45q-250 0 -249 250zM154 1198v191h135v-191h-135zM221 231q0 -98 98 -98h37q98 0 99 98v643q-1 99 -99 99h-37q-98 0 -98 -99v-643zM387 1198v191h135v-191h-135z" />
<glyph unicode="&#xf7;" horiz-adv-x="643" d="M20 657v142h603v-142h-603zM244 399v160h155v-160h-155zM244 897v160h155v-160h-155z" />
<glyph unicode="&#xf8;" horiz-adv-x="675" d="M66 238v630q0 250 249 250h45q250 0 250 -250v-630q0 -250 -250 -250h-45q-250 0 -249 250zM217 276l201 682q-23 15 -62 15h-37q-98 0 -98 -99zM258 147q20 -14 61 -14h37q98 0 99 98l4 598z" />
<glyph unicode="&#xf9;" horiz-adv-x="681" d="M70 186v920h155v-887q0 -84 80 -84q72 0 150 55v916h155v-1106h-155v72q-88 -84 -197 -84q-188 0 -188 198zM164 1413h158l73 -215h-104z" />
<glyph unicode="&#xfa;" horiz-adv-x="681" d="M70 186v920h155v-887q0 -84 80 -84q72 0 150 55v916h155v-1106h-155v72q-88 -84 -197 -84q-188 0 -188 198zM285 1198l73 215h158l-127 -215h-104z" />
<glyph unicode="&#xfb;" horiz-adv-x="681" d="M70 186v920h155v-887q0 -84 80 -84q72 0 150 55v916h155v-1106h-155v72q-88 -84 -197 -84q-188 0 -188 198zM139 1198l131 215h140l131 -215h-109l-92 109l-92 -109h-109z" />
<glyph unicode="&#xfc;" horiz-adv-x="681" d="M70 186v920h155v-887q0 -84 80 -84q72 0 150 55v916h155v-1106h-155v72q-88 -84 -197 -84q-188 0 -188 198zM156 1198v191h135v-191h-135zM389 1198v191h135v-191h-135z" />
<glyph unicode="&#xfd;" horiz-adv-x="647" d="M33 1106h157l136 -793l135 793h153l-264 -1331h-153l51 239zM272 1198l74 215h158l-127 -215h-105z" />
<glyph unicode="&#xfe;" horiz-adv-x="684" d="M72 -225v1679h155v-420q80 84 191 84q98 0 148 -59.5t50 -159.5v-692q0 -100 -50 -159.5t-148 -59.5q-115 0 -191 84v-297h-155zM227 193q68 -57 144 -58q90 0 90 90v656q0 90 -90 90q-76 -1 -144 -58v-720z" />
<glyph unicode="&#xff;" horiz-adv-x="647" d="M33 1106h157l136 -793l135 793h153l-264 -1331h-153l51 239zM143 1198v191h136v-191h-136zM377 1198v191h135v-191h-135z" />
<glyph unicode="&#x152;" horiz-adv-x="1009" d="M74 317v799q0 318 317 318h557v-152h-286v-475h276v-150h-276v-505h290v-152h-561q-317 0 -317 317zM238 315q0 -166 161 -165h99v1134h-99q-162 0 -161 -166v-803z" />
<glyph unicode="&#x153;" horiz-adv-x="1050" d="M66 238v630q0 250 249 250h45q121 0 172 -67q52 67 173 67h32q250 0 250 -250v-372h-377v-265q0 -98 99 -98h28q98 0 99 98v127h151v-120q0 -250 -250 -250h-32q-121 0 -173 65q-51 -66 -172 -65h-45q-250 0 -249 250zM221 229q0 -94 94 -94h45q94 0 95 94v648 q-1 94 -95 94h-45q-94 0 -94 -94v-648zM610 643h221v231q0 98 -98 99h-24q-99 -1 -99 -99v-231z" />
<glyph unicode="&#x178;" horiz-adv-x="663" d="M18 1434h168l146 -703l151 703h162l-231 -940v-494h-164v492zM143 1526v149h140v-149h-140zM381 1526v149h139v-149h-139z" />
<glyph unicode="&#x2c6;" horiz-adv-x="1024" d="M311 1198l131 215h140l131 -215h-109l-92 109l-92 -109h-109z" />
<glyph unicode="&#x2dc;" horiz-adv-x="1024" d="M303 1198v119q0 96 94 96h4q53 0 103 -37l49 -37q33 -25 43 -24h2q18 0 18 24v74h105v-119q0 -96 -94 -96h-4q-53 0 -103 37l-49 37q-35 25 -43 24h-2q-18 0 -18 -24v-74h-105z" />
<glyph unicode="&#x2000;" horiz-adv-x="860" />
<glyph unicode="&#x2001;" horiz-adv-x="1720" />
<glyph unicode="&#x2002;" horiz-adv-x="860" />
<glyph unicode="&#x2003;" horiz-adv-x="1720" />
<glyph unicode="&#x2004;" horiz-adv-x="573" />
<glyph unicode="&#x2005;" horiz-adv-x="430" />
<glyph unicode="&#x2006;" horiz-adv-x="286" />
<glyph unicode="&#x2007;" horiz-adv-x="286" />
<glyph unicode="&#x2008;" horiz-adv-x="215" />
<glyph unicode="&#x2009;" horiz-adv-x="344" />
<glyph unicode="&#x200a;" horiz-adv-x="95" />
<glyph unicode="&#x2010;" horiz-adv-x="421" d="M33 500v147h356v-147h-356z" />
<glyph unicode="&#x2011;" horiz-adv-x="421" d="M33 500v147h356v-147h-356z" />
<glyph unicode="&#x2012;" horiz-adv-x="421" d="M33 500v147h356v-147h-356z" />
<glyph unicode="&#x2013;" horiz-adv-x="749" d="M33 504v139h684v-139h-684z" />
<glyph unicode="&#x2014;" horiz-adv-x="1171" d="M33 504v139h1073v-139h-1073z" />
<glyph unicode="&#x2018;" horiz-adv-x="282" d="M61 1001v158q0 72 10.5 111t43.5 100l43 76l65 -19l-24 -61q-29 -70 -35 -127h57v-238h-160z" />
<glyph unicode="&#x2019;" horiz-adv-x="282" d="M59 1008l25 61q29 70 35 127h-58v238h160v-158q0 -72 -10 -111t-43 -100l-43 -76z" />
<glyph unicode="&#x201a;" horiz-adv-x="282" d="M59 -188l25 61q29 70 35 127h-58v238h160v-158q0 -72 -10 -111t-43 -100l-43 -76z" />
<glyph unicode="&#x201c;" horiz-adv-x="536" d="M61 1001v158q0 72 10.5 111t43.5 100l43 76l65 -19l-24 -61q-29 -70 -35 -127h57v-238h-160zM315 1001v158q0 72 10.5 111t43.5 100l43 76l65 -19l-24 -61q-29 -70 -35 -127h57v-238h-160z" />
<glyph unicode="&#x201d;" horiz-adv-x="536" d="M59 1008l25 61q29 70 35 127h-58v238h160v-158q0 -72 -10 -111t-43 -100l-43 -76zM313 1008l25 61q29 70 35 127h-58v238h160v-158q0 -72 -10 -111t-43 -100l-43 -76z" />
<glyph unicode="&#x201e;" horiz-adv-x="536" d="M59 -188l25 61q29 70 35 127h-58v238h160v-158q0 -72 -10 -111t-43 -100l-43 -76zM313 -188l25 61q29 70 35 127h-58v238h160v-158q0 -72 -10 -111t-43 -100l-43 -76z" />
<glyph unicode="&#x2022;" horiz-adv-x="487" d="M113 639v164q0 94 104 94h51q107 0 107 -94v-164q0 -94 -107 -94h-51q-104 0 -104 94z" />
<glyph unicode="&#x2026;" horiz-adv-x="847" d="M61 0v238h160v-238h-160zM344 0v238h160v-238h-160zM627 0v238h159v-238h-159z" />
<glyph unicode="&#x202f;" horiz-adv-x="344" />
<glyph unicode="&#x2039;" horiz-adv-x="325" d="M10 573l146 318h141l-127 -318l127 -317h-135z" />
<glyph unicode="&#x203a;" horiz-adv-x="325" d="M29 256l127 317l-127 318h141l145 -318l-151 -317h-135z" />
<glyph unicode="&#x205f;" horiz-adv-x="430" />
<glyph unicode="&#x20ac;" horiz-adv-x="739" d="M45 565v113h76v96h-76v113h76v293q0 266 266 266h37q262 0 262 -262v-176h-160v180q0 109 -104 108h-33q-104 0 -104 -108v-301h301v-113h-301v-96h301v-113h-301v-319q0 -109 104 -109h37q104 0 104 109v194h160v-186q0 -266 -266 -266h-37q-266 0 -266 266v311h-76z " />
<glyph unicode="&#x2122;" horiz-adv-x="897" d="M25 1343v91h311v-91h-107v-534h-98v534h-106zM385 809v625h133l82 -469l84 469h127v-625h-86v453l-84 -453h-88l-82 453v-453h-86z" />
<glyph unicode="&#xe000;" horiz-adv-x="1105" d="M0 0v1106h1106v-1106h-1106z" />
</font>
</defs>
</svg>
